# Blender v3.0.1 OBJ File: 'primitive_house.blend'
# www.blender.org
mtllib primitive_house.mtl
o Cube.001
v 0.483461 2.905097 -0.483461
v 1.931772 0.905097 -1.931772
v 0.483461 2.905097 0.483461
v 1.931772 0.905097 1.931772
v -0.483461 2.905097 -0.483461
v -1.931772 0.905097 -1.931772
v -0.483461 2.905097 0.483461
v -1.931772 0.905097 1.931772
v 1.931772 0.905097 -1.931772
v 1.931772 0.905097 1.931772
v -1.931772 0.905097 -1.931772
v -1.931772 0.905097 1.931772
v 1.600174 1.000000 -1.600174
v 1.600174 -1.000000 -1.600174
v 1.600174 1.000000 1.600174
v 1.600174 -1.000000 1.600174
v -1.600174 1.000000 -1.600174
v -1.600174 -1.000000 -1.600174
v -1.600174 1.000000 1.600174
v -1.600174 -1.000000 1.600174
vt 0.875000 0.500000
vt 0.625000 0.750000
vt 0.625000 0.500000
vt 0.375000 1.000000
vt 0.375000 0.750000
vt 0.625000 0.000000
vt 0.375000 0.250000
vt 0.375000 0.000000
vt 0.375000 0.500000
vt 0.375000 0.250000
vt 0.375000 0.500000
vt 0.625000 0.250000
vt 0.125000 0.750000
vt 0.125000 0.500000
vt 0.375000 1.000000
vt 0.375000 0.750000
vt 0.375000 0.000000
vt 0.875000 0.500000
vt 0.625000 0.750000
vt 0.625000 0.500000
vt 0.375000 1.000000
vt 0.375000 0.750000
vt 0.625000 0.000000
vt 0.375000 0.250000
vt 0.375000 0.000000
vt 0.375000 0.500000
vt 0.125000 0.750000
vt 0.125000 0.500000
vt 0.625000 0.250000
vt 0.875000 0.750000
vt 0.625000 1.000000
vt 0.875000 0.750000
vt 0.625000 1.000000
vn 0.0000 1.0000 0.0000
vn 0.0000 0.5865 0.8099
vn -0.8099 0.5865 0.0000
vn 0.0000 0.0000 1.0000
vn 0.8099 0.5865 0.0000
vn 0.0000 0.5865 -0.8099
vn 0.0000 -1.0000 0.0000
vn -1.0000 0.0000 0.0000
vn 1.0000 0.0000 0.0000
vn 0.0000 0.0000 -1.0000
usemtl Material
s off
f 5/1/1 3/2/1 1/3/1
f 3/2/2 8/4/2 4/5/2
f 7/6/3 6/7/3 8/8/3
f 6/7/4 9/9/4 11/10/4
f 1/3/5 4/5/5 2/11/5
f 5/12/6 2/11/6 6/7/6
f 9/9/7 12/13/7 11/14/7
f 4/5/4 12/15/4 10/16/4
f 8/8/4 11/10/4 12/17/4
f 2/11/4 10/16/4 9/9/4
f 17/18/1 15/19/1 13/20/1
f 15/19/4 20/21/4 16/22/4
f 19/23/8 18/24/8 20/25/8
f 14/26/7 20/27/7 18/28/7
f 13/20/9 16/22/9 14/26/9
f 17/29/10 14/26/10 18/24/10
f 5/1/1 7/30/1 3/2/1
f 3/2/2 7/31/2 8/4/2
f 7/6/3 5/12/3 6/7/3
f 6/7/4 2/11/4 9/9/4
f 1/3/5 3/2/5 4/5/5
f 5/12/6 1/3/6 2/11/6
f 9/9/7 10/16/7 12/13/7
f 4/5/4 8/4/4 12/15/4
f 8/8/4 6/7/4 11/10/4
f 2/11/4 4/5/4 10/16/4
f 17/18/1 19/32/1 15/19/1
f 15/19/4 19/33/4 20/21/4
f 19/23/8 17/29/8 18/24/8
f 14/26/7 16/22/7 20/27/7
f 13/20/9 15/19/9 16/22/9
f 17/29/10 13/20/10 14/26/10
